# xmcd CD database file
#
# Track frame offsets:
#	150
#	14762
#	30362
#	44025
#	55162
#	66212
#	79075
#	97737
#	108932
#	119562
#	131775
#	143975
#
# Disc length: 2100 seconds
#
# Revision: 6
# Processed by: cddbd v1.5.2PL0 Copyright (c) Steve Scherf et al.
# Submitted via: CDex 1.72
#
DISCID=a708320c
DTITLE=Haggard, Merle (USA-01-Roots-V1-cty) - Roots, Volume 1
DYEAR=2001
DGENRE=Country
TTITLE0=Always Late (With Your Kisses)
TTITLE1=More Than My Old Guitar
TTITLE2=If You've Got the Money (I've Got the Time)
TTITLE3=Look What Thoughts Will Do
TTITLE4=My Baby's Just Like Money
TTITLE5=Honky Tonkin'
TTITLE6=Runaway Mama
TTITLE7=I'll Sign My Heart Away
TTITLE8=I've Got a Tender Heart
TTITLE9=The Wild Side of Life
TTITLE10=Take These Chains from My Heart
TTITLE11=I Want to Be With You Always
EXTD=YEAR: 2001
EXTT0=
EXTT1=
EXTT2=
EXTT3=
EXTT4=
EXTT5=
EXTT6=
EXTT7=
EXTT8=
EXTT9=
EXTT10=
EXTT11=
PLAYORDER=
